<?xml version="1.0" standalone="no"?><!DOCTYPE svg PUBLIC "-//W3C//DTD SVG 1.1//EN" "http://www.w3.org/Graphics/SVG/1.1/DTD/svg11.dtd"><svg t="1769508577912" class="icon" viewBox="0 0 1024 1024" version="1.1" xmlns="http://www.w3.org/2000/svg" p-id="6208" xmlns:xlink="http://www.w3.org/1999/xlink" width="200" height="200"><path d="M167.253333 738.986667h723.626667l92.16 128c34.133333 47.786667 15.36 88.746667-44.373333 88.746666H112.64c-59.733333 0-78.506667-39.253333-42.666667-87.04l97.28-129.706666z" fill="#DAE9FF" p-id="6209"></path><path d="M189.44 223.573333c1.706667-47.786667 40.96-87.04 90.453333-87.04h534.186667c47.786667 0 87.04 39.253333 87.04 87.04v566.613334c0 47.786667-39.253333 87.04-87.04 87.04H259.413333c-47.786667 0-87.04-39.253333-85.333333-87.04l15.36-566.613334z" fill="#DAE9FF" p-id="6210"></path><path d="M247.466667 136.533333h534.186666c47.786667 0 87.04 39.253333 87.04 87.04v566.613334c0 47.786667-39.253333 87.04-87.04 87.04H247.466667c-47.786667 0-87.04-39.253333-87.04-87.04V223.573333C158.72 175.786667 197.973333 136.533333 247.466667 136.533333z" fill="#3889FF" p-id="6211"></path><path d="M283.306667 450.56a51.2 51.2 0 1 0 102.4 0 51.2 51.2 0 1 0-102.4 0Z" fill="#DAE9FF" p-id="6212"></path><path d="M283.306667 610.986667a51.2 51.2 0 1 0 102.4 0 51.2 51.2 0 1 0-102.4 0Z" fill="#DAE9FF" p-id="6213"></path><path d="M283.306667 769.706667a51.2 51.2 0 1 0 102.4 0 51.2 51.2 0 1 0-102.4 0Z" fill="#DAE9FF" p-id="6214"></path><path d="M474.453333 450.56a51.2 51.2 0 1 0 102.4 0 51.2 51.2 0 1 0-102.4 0Z" fill="#DAE9FF" p-id="6215"></path><path d="M474.453333 610.986667a51.2 51.2 0 1 0 102.4 0 51.2 51.2 0 1 0-102.4 0Z" fill="#DAE9FF" p-id="6216"></path><path d="M474.453333 769.706667a51.2 51.2 0 1 0 102.4 0 51.2 51.2 0 1 0-102.4 0Z" fill="#DAE9FF" p-id="6217"></path><path d="M667.306667 450.56a51.2 51.2 0 1 0 102.4 0 51.2 51.2 0 1 0-102.4 0Z" fill="#DAE9FF" p-id="6218"></path><path d="M667.306667 610.986667a51.2 51.2 0 1 0 102.4 0 51.2 51.2 0 1 0-102.4 0Z" fill="#DAE9FF" p-id="6219"></path><path d="M667.306667 769.706667a51.2 51.2 0 1 0 102.4 0 51.2 51.2 0 1 0-102.4 0Z" fill="#DAE9FF" p-id="6220"></path><path d="M250.88 279.893333c0-27.306667 22.186667-51.2 51.2-51.2H716.8c29.013333 0 51.2 22.186667 51.2 51.2 0 27.306667-22.186667 51.2-51.2 51.2H302.08c-27.306667 0-51.2-22.186667-51.2-51.2z" fill="#FFFFFF" p-id="6221"></path><path d="M266.24 440.32a51.2 51.2 0 1 0 102.4 0 51.2 51.2 0 1 0-102.4 0Z" fill="#FFFFFF" p-id="6222"></path><path d="M266.24 600.746667a51.2 51.2 0 1 0 102.4 0 51.2 51.2 0 1 0-102.4 0Z" fill="#FFFFFF" p-id="6223"></path><path d="M266.24 759.466667a51.2 51.2 0 1 0 102.4 0 51.2 51.2 0 1 0-102.4 0Z" fill="#FFFFFF" p-id="6224"></path><path d="M459.093333 440.32a51.2 51.2 0 1 0 102.4 0 51.2 51.2 0 1 0-102.4 0Z" fill="#FFFFFF" p-id="6225"></path><path d="M459.093333 600.746667a51.2 51.2 0 1 0 102.4 0 51.2 51.2 0 1 0-102.4 0Z" fill="#FFFFFF" p-id="6226"></path><path d="M459.093333 759.466667a51.2 51.2 0 1 0 102.4 0 51.2 51.2 0 1 0-102.4 0Z" fill="#FFFFFF" p-id="6227"></path><path d="M650.24 440.32a51.2 51.2 0 1 0 102.4 0 51.2 51.2 0 1 0-102.4 0Z" fill="#FFFFFF" p-id="6228"></path><path d="M650.24 600.746667a51.2 51.2 0 1 0 102.4 0 51.2 51.2 0 1 0-102.4 0Z" fill="#FFFFFF" p-id="6229"></path><path d="M650.24 759.466667a51.2 51.2 0 1 0 102.4 0 51.2 51.2 0 1 0-102.4 0Z" fill="#FFFFFF" p-id="6230"></path><path d="M273.066667 238.933333c-11.946667 8.533333-20.48 23.893333-20.48 40.96 0 27.306667 22.186667 51.2 51.2 51.2H716.8c20.48 0 39.253333-11.946667 46.08-30.72-6.826667 3.413333-13.653333 5.12-22.186667 5.12H317.44c-25.6 0-46.08-20.48-46.08-46.08v-10.24c0-1.706667 0-6.826667 1.706667-10.24z" fill="#DAE9FF" p-id="6231"></path></svg>